<?xml version="1.0" encoding="utf-8"?>
<!-- Generator: Adobe Illustrator 16.0.0, SVG Export Plug-In . SVG Version: 6.00 Build 0)  -->
<!DOCTYPE svg PUBLIC "-//W3C//DTD SVG 1.1//EN" "http://www.w3.org/Graphics/SVG/1.1/DTD/svg11.dtd">
<svg version="1.1" id="Layer_1" xmlns="http://www.w3.org/2000/svg" xmlns:xlink="http://www.w3.org/1999/xlink" x="0px" y="0px"
	 width="283.46px" height="283.46px" viewBox="0 0 283.46 283.46" enable-background="new 0 0 283.46 283.46" xml:space="preserve">
<rect x="95.791" y="1.75" fill="#AFD2F7" stroke="#FFFFFF" stroke-miterlimit="10" width="47.073" height="47.073"/>
<rect x="142.864" y="1.75" fill="#FF8988" stroke="#FFFFFF" stroke-miterlimit="10" width="47.074" height="47.073"/>
<rect x="2" y="1.75" fill="#117AEF" stroke="#FFFFFF" stroke-miterlimit="10" width="47.073" height="47.073"/>
<rect x="49.073" y="1.75" fill="#AFD2F7" stroke="#FFFFFF" stroke-miterlimit="10" width="47.074" height="47.073"/>
<rect x="95.791" y="48.823" fill="#AFD2F7" stroke="#FFFFFF" stroke-miterlimit="10" width="47.073" height="47.074"/>
<rect x="142.864" y="48.823" fill="#FF8988" stroke="#FFFFFF" stroke-miterlimit="10" width="47.074" height="47.074"/>
<rect x="2" y="48.823" fill="#117AEF" stroke="#FFFFFF" stroke-miterlimit="10" width="47.073" height="47.074"/>
<rect x="49.073" y="48.823" fill="#AFD2F7" stroke="#FFFFFF" stroke-miterlimit="10" width="47.074" height="47.074"/>
<rect x="95.791" y="95.541" fill="#FF8988" stroke="#FFFFFF" stroke-miterlimit="10" width="47.073" height="47.073"/>
<rect x="142.864" y="95.541" fill="#FF8988" stroke="#FFFFFF" stroke-miterlimit="10" width="47.074" height="47.073"/>
<rect x="2" y="95.541" fill="#D6E8FA" stroke="#FFFFFF" stroke-miterlimit="10" width="47.073" height="47.073"/>
<rect x="49.073" y="95.541" fill="#AFD2F7" stroke="#FFFFFF" stroke-miterlimit="10" width="47.074" height="47.073"/>
<rect x="95.791" y="142.614" fill="#FF8988" stroke="#FFFFFF" stroke-miterlimit="10" width="47.073" height="47.074"/>
<polygon fill="#FF8988" stroke="#FFFFFF" stroke-miterlimit="10" points="189.267,189.017 142.864,189.688 142.864,142.614 
	189.938,142.614 "/>
<rect x="189.76" y="1.75" fill="#FF4240" stroke="#FFFFFF" stroke-miterlimit="10" width="47.074" height="47.073"/>
<rect x="236.834" y="1.75" fill="#FF8988" stroke="#FFFFFF" stroke-miterlimit="10" width="47.073" height="47.073"/>
<rect x="189.76" y="48.823" fill="#FF4240" stroke="#FFFFFF" stroke-miterlimit="10" width="47.074" height="47.074"/>
<rect x="236.834" y="48.823" fill="#FF4240" stroke="#FFFFFF" stroke-miterlimit="10" width="47.073" height="47.074"/>
<rect x="189.76" y="95.541" fill="#AFD2F7" stroke="#FFFFFF" stroke-miterlimit="10" width="47.074" height="47.073"/>
<rect x="236.834" y="95.541" fill="#FF4240" stroke="#FFFFFF" stroke-miterlimit="10" width="47.073" height="47.073"/>
<rect x="189.76" y="142.614" fill="#D6E8FA" stroke="#FFFFFF" stroke-miterlimit="10" width="47.074" height="47.074"/>
<polygon fill="#D6E8FA" stroke="#FFFFFF" stroke-miterlimit="10" points="283.236,189.017 236.834,189.688 236.834,142.614 
	283.907,142.614 "/>
<rect x="2" y="142.614" fill="#D6E8FA" stroke="#FFFFFF" stroke-miterlimit="10" width="47.073" height="47.074"/>
<rect x="49.073" y="142.614" fill="#D6E8FA" stroke="#FFFFFF" stroke-miterlimit="10" width="47.074" height="47.074"/>
<rect x="95.791" y="189.493" fill="#FF4240" stroke="#FFFFFF" stroke-miterlimit="10" width="47.073" height="47.074"/>
<rect x="142.864" y="189.493" fill="#FF4240" stroke="#FFFFFF" stroke-miterlimit="10" width="47.074" height="47.074"/>
<rect x="2" y="189.493" fill="#D6E8FA" stroke="#FFFFFF" stroke-miterlimit="10" width="47.073" height="47.074"/>
<rect x="49.073" y="189.493" fill="#FF8988" stroke="#FFFFFF" stroke-miterlimit="10" width="47.074" height="47.074"/>
<rect x="95.791" y="236.567" fill="#FF4240" stroke="#FFFFFF" stroke-miterlimit="10" width="47.073" height="47.073"/>
<polygon fill="#FF4240" stroke="#FFFFFF" stroke-miterlimit="10" points="189.267,282.969 142.864,283.641 142.864,236.567 
	189.938,236.567 "/>
<rect x="189.76" y="189.493" fill="#D6E8FA" stroke="#FFFFFF" stroke-miterlimit="10" width="47.074" height="47.074"/>
<rect x="236.834" y="189.493" fill="#D6E8FA" stroke="#FFFFFF" stroke-miterlimit="10" width="47.073" height="47.074"/>
<rect x="189.76" y="236.567" fill="#D6E8FA" stroke="#FFFFFF" stroke-miterlimit="10" width="47.074" height="47.073"/>
<polygon fill="#AFD2F7" stroke="#FFFFFF" stroke-miterlimit="10" points="283.236,282.969 236.834,283.641 236.834,236.567 
	283.907,236.567 "/>
<rect x="2" y="236.567" fill="#D6E8FA" stroke="#FFFFFF" stroke-miterlimit="10" width="47.073" height="47.073"/>
<rect x="49.073" y="236.567" fill="#AFD2F7" stroke="#FFFFFF" stroke-miterlimit="10" width="47.074" height="47.073"/>
</svg>
