<?xml version="1.0" encoding="utf-8"?>
<!-- Generator: Adobe Illustrator 16.0.0, SVG Export Plug-In . SVG Version: 6.00 Build 0)  -->
<!DOCTYPE svg PUBLIC "-//W3C//DTD SVG 1.1//EN" "http://www.w3.org/Graphics/SVG/1.1/DTD/svg11.dtd">
<svg version="1.1" id="Layer_1" xmlns="http://www.w3.org/2000/svg" xmlns:xlink="http://www.w3.org/1999/xlink" x="0px" y="0px"
	 width="283.46px" height="283.46px" viewBox="0 0 283.46 283.46" enable-background="new 0 0 283.46 283.46" xml:space="preserve">
<g>
	<rect x="24.855" y="185.186" fill="#D6E8FA" stroke="#FFFFFF" stroke-miterlimit="10" width="17.75" height="70.24"/>
	<rect x="24.855" y="118.038" fill="#FF4240" stroke="#FFFFFF" stroke-miterlimit="10" width="17.75" height="70.24"/>
	<rect x="24.855" y="52.383" fill="#AFD2F7" stroke="#FFFFFF" stroke-miterlimit="10" width="17.75" height="70.241"/>
	<rect x="24.855" y="28.035" fill="#FF8988" stroke="#FFFFFF" stroke-miterlimit="10" width="17.75" height="58.031"/>
	<rect x="51.855" y="215.674" fill="#D6E8FA" stroke="#FFFFFF" stroke-miterlimit="10" width="17.75" height="39.752"/>
	<rect x="51.855" y="118.038" fill="#FF4240" stroke="#FFFFFF" stroke-miterlimit="10" width="17.75" height="99.875"/>
	<rect x="51.855" y="52.383" fill="#AFD2F7" stroke="#FFFFFF" stroke-miterlimit="10" width="17.75" height="123.375"/>
	<rect x="51.855" y="50.944" fill="#FF8988" stroke="#FFFFFF" stroke-miterlimit="10" width="17.75" height="35.121"/>
	<rect x="78.855" y="232.834" fill="#D6E8FA" stroke="#FFFFFF" stroke-miterlimit="10" width="17.75" height="22.592"/>
	<rect x="78.855" y="118.038" fill="#FF4240" stroke="#FFFFFF" stroke-miterlimit="10" width="17.75" height="118.63"/>
	<rect x="78.855" y="52.383" fill="#AFD2F7" stroke="#FFFFFF" stroke-miterlimit="10" width="17.75" height="105.574"/>
	<rect x="105.855" y="168.297" fill="#D6E8FA" stroke="#FFFFFF" stroke-miterlimit="10" width="17.75" height="87.129"/>
	<rect x="105.855" y="118.038" fill="#FF4240" stroke="#FFFFFF" stroke-miterlimit="10" width="17.75" height="70.24"/>
	<rect x="105.855" y="52.383" fill="#AFD2F7" stroke="#FFFFFF" stroke-miterlimit="10" width="17.75" height="91.668"/>
	<rect x="132.855" y="198.887" fill="#D6E8FA" stroke="#FFFFFF" stroke-miterlimit="10" width="17.75" height="56.539"/>
	<rect x="132.855" y="118.038" fill="#FF4240" stroke="#FFFFFF" stroke-miterlimit="10" width="17.75" height="85.699"/>
	<rect x="132.855" y="52.383" fill="#AFD2F7" stroke="#FFFFFF" stroke-miterlimit="10" width="17.75" height="75.253"/>
	<rect x="159.855" y="160.09" fill="#D6E8FA" stroke="#FFFFFF" stroke-miterlimit="10" width="17.75" height="95.336"/>
	<rect x="159.855" y="127.636" fill="#FF4240" stroke="#FFFFFF" stroke-miterlimit="10" width="17.75" height="60.641"/>
	<rect x="159.855" y="52.383" fill="#AFD2F7" stroke="#FFFFFF" stroke-miterlimit="10" width="17.75" height="79.357"/>
	<rect x="186.855" y="220.305" fill="#D6E8FA" stroke="#FFFFFF" stroke-miterlimit="10" width="17.75" height="35.121"/>
	<rect x="186.855" y="150.764" fill="#FF4240" stroke="#FFFFFF" stroke-miterlimit="10" width="17.75" height="72.371"/>
	<rect x="186.855" y="52.383" fill="#AFD2F7" stroke="#FFFFFF" stroke-miterlimit="10" width="17.75" height="100.775"/>
	<rect x="213.855" y="217.912" fill="#D6E8FA" stroke="#FFFFFF" stroke-miterlimit="10" width="17.75" height="37.514"/>
	<rect x="213.855" y="118.038" fill="#FF4240" stroke="#FFFFFF" stroke-miterlimit="10" width="17.75" height="102.267"/>
	<rect x="213.855" y="78.687" fill="#AFD2F7" stroke="#FFFFFF" stroke-miterlimit="10" width="17.75" height="43.937"/>
	<rect x="240.855" y="200.752" fill="#D6E8FA" stroke="#FFFFFF" stroke-miterlimit="10" width="17.75" height="54.674"/>
	<rect x="240.855" y="139.574" fill="#FF4240" stroke="#FFFFFF" stroke-miterlimit="10" width="17.75" height="64.163"/>
	<rect x="240.855" y="52.383" fill="#AFD2F7" stroke="#FFFFFF" stroke-miterlimit="10" width="17.75" height="91.668"/>
	<rect x="78.855" y="43.672" fill="#FF8988" stroke="#FFFFFF" stroke-miterlimit="10" width="17.75" height="42.393"/>
	<rect x="105.855" y="40.236" fill="#FF8988" stroke="#FFFFFF" stroke-miterlimit="10" width="17.75" height="56.539"/>
	<rect x="132.855" y="43.672" fill="#FF8988" stroke="#FFFFFF" stroke-miterlimit="10" width="17.75" height="42.393"/>
	<rect x="159.855" y="33.384" fill="#FF8988" stroke="#FFFFFF" stroke-miterlimit="10" width="17.75" height="25.266"/>
	<rect x="186.855" y="35.496" fill="#FF8988" stroke="#FFFFFF" stroke-miterlimit="10" width="17.75" height="41.407"/>
	<rect x="213.855" y="71.307" fill="#FF8988" stroke="#FFFFFF" stroke-miterlimit="10" width="17.75" height="14.758"/>
	<rect x="240.855" y="33.384" fill="#FF8988" stroke="#FFFFFF" stroke-miterlimit="10" width="17.75" height="70.241"/>
</g>
</svg>
