<?xml version="1.0" encoding="utf-8"?>
<!-- Generator: Adobe Illustrator 16.0.0, SVG Export Plug-In . SVG Version: 6.00 Build 0)  -->
<!DOCTYPE svg PUBLIC "-//W3C//DTD SVG 1.1//EN" "http://www.w3.org/Graphics/SVG/1.1/DTD/svg11.dtd">
<svg version="1.1" id="Layer_1" xmlns="http://www.w3.org/2000/svg" xmlns:xlink="http://www.w3.org/1999/xlink" x="0px" y="0px"
	 width="283.46px" height="283.46px" viewBox="0 0 283.46 283.46" enable-background="new 0 0 283.46 283.46" xml:space="preserve">
<g>
	<rect x="0.621" y="195.855" fill="#D6E8FA" stroke="#FFFFFF" stroke-miterlimit="10" width="21.478" height="87.604"/>
	<rect x="0.621" y="112.107" fill="#FF4240" stroke="#FFFFFF" stroke-miterlimit="10" width="21.478" height="87.604"/>
	<rect x="0.621" y="30.223" fill="#AFD2F7" stroke="#FFFFFF" stroke-miterlimit="10" width="21.478" height="87.605"/>
	<rect x="0.621" y="-0.144" fill="#FF8988" stroke="#FFFFFF" stroke-miterlimit="10" width="21.478" height="72.376"/>
	<rect x="33.292" y="233.882" fill="#D6E8FA" stroke="#FFFFFF" stroke-miterlimit="10" width="21.477" height="49.578"/>
	<rect x="33.292" y="112.107" fill="#FF4240" stroke="#FFFFFF" stroke-miterlimit="10" width="21.477" height="124.564"/>
	<rect x="33.292" y="30.223" fill="#AFD2F7" stroke="#FFFFFF" stroke-miterlimit="10" width="21.477" height="153.875"/>
	<rect x="33.292" y="28.429" fill="#FF8988" stroke="#FFFFFF" stroke-miterlimit="10" width="21.477" height="43.804"/>
	<rect x="65.961" y="255.283" fill="#D6E8FA" stroke="#FFFFFF" stroke-miterlimit="10" width="21.478" height="28.177"/>
	<rect x="65.961" y="112.107" fill="#FF4240" stroke="#FFFFFF" stroke-miterlimit="10" width="21.478" height="147.958"/>
	<rect x="65.961" y="30.223" fill="#AFD2F7" stroke="#FFFFFF" stroke-miterlimit="10" width="21.478" height="131.672"/>
	<rect x="98.631" y="174.792" fill="#D6E8FA" stroke="#FFFFFF" stroke-miterlimit="10" width="21.478" height="108.668"/>
	<rect x="98.631" y="112.107" fill="#FF4240" stroke="#FFFFFF" stroke-miterlimit="10" width="21.478" height="87.604"/>
	<rect x="98.631" y="30.223" fill="#AFD2F7" stroke="#FFFFFF" stroke-miterlimit="10" width="21.478" height="114.329"/>
	<rect x="131.302" y="212.944" fill="#D6E8FA" stroke="#FFFFFF" stroke-miterlimit="10" width="21.478" height="70.516"/>
	<rect x="131.302" y="112.107" fill="#FF4240" stroke="#FFFFFF" stroke-miterlimit="10" width="21.478" height="106.886"/>
	<rect x="131.302" y="30.223" fill="#AFD2F7" stroke="#FFFFFF" stroke-miterlimit="10" width="21.478" height="93.857"/>
	<rect x="163.973" y="164.557" fill="#D6E8FA" stroke="#FFFFFF" stroke-miterlimit="10" width="21.477" height="118.903"/>
	<rect x="163.973" y="124.08" fill="#FF4240" stroke="#FFFFFF" stroke-miterlimit="10" width="21.477" height="75.631"/>
	<rect x="163.973" y="30.223" fill="#AFD2F7" stroke="#FFFFFF" stroke-miterlimit="10" width="21.477" height="98.975"/>
	<rect x="196.643" y="239.657" fill="#D6E8FA" stroke="#FFFFFF" stroke-miterlimit="10" width="21.476" height="43.803"/>
	<rect x="196.643" y="152.925" fill="#FF4240" stroke="#FFFFFF" stroke-miterlimit="10" width="21.476" height="90.261"/>
	<rect x="196.643" y="30.223" fill="#AFD2F7" stroke="#FFFFFF" stroke-miterlimit="10" width="21.476" height="125.688"/>
	<rect x="229.312" y="236.672" fill="#D6E8FA" stroke="#FFFFFF" stroke-miterlimit="10" width="21.479" height="46.788"/>
	<rect x="229.312" y="112.107" fill="#FF4240" stroke="#FFFFFF" stroke-miterlimit="10" width="21.479" height="127.55"/>
	<rect x="229.312" y="63.029" fill="#AFD2F7" stroke="#FFFFFF" stroke-miterlimit="10" width="21.479" height="54.799"/>
	<rect x="261.982" y="215.271" fill="#D6E8FA" stroke="#FFFFFF" stroke-miterlimit="10" width="21.478" height="68.189"/>
	<rect x="261.982" y="138.968" fill="#FF4240" stroke="#FFFFFF" stroke-miterlimit="10" width="21.478" height="80.025"/>
	<rect x="261.982" y="30.223" fill="#AFD2F7" stroke="#FFFFFF" stroke-miterlimit="10" width="21.478" height="114.329"/>
	<rect x="65.961" y="19.359" fill="#FF8988" stroke="#FFFFFF" stroke-miterlimit="10" width="21.478" height="52.874"/>
	<rect x="98.631" y="15.074" fill="#FF8988" stroke="#FFFFFF" stroke-miterlimit="10" width="21.478" height="70.515"/>
	<rect x="131.302" y="19.359" fill="#FF8988" stroke="#FFFFFF" stroke-miterlimit="10" width="21.478" height="52.874"/>
	<rect x="163.973" y="6.528" fill="#FF8988" stroke="#FFFFFF" stroke-miterlimit="10" width="21.477" height="31.512"/>
	<rect x="196.643" y="9.162" fill="#FF8988" stroke="#FFFFFF" stroke-miterlimit="10" width="21.476" height="51.643"/>
	<rect x="229.312" y="53.826" fill="#FF8988" stroke="#FFFFFF" stroke-miterlimit="10" width="21.479" height="18.407"/>
	<rect x="261.982" y="6.528" fill="#FF8988" stroke="#FFFFFF" stroke-miterlimit="10" width="21.478" height="87.604"/>
</g>
</svg>
